<svg width="300" height="620" viewBox="0 0 300 620" xmlns="http://www.w3.org/2000/svg" font-family="Verdana, sans-serif">
  <defs>
    <linearGradient id="bg3" x1="0" y1="0" x2="0" y2="1">
      <stop offset="0" stop-color="#0f172a"/>
      <stop offset="0.5" stop-color="#1e1b4b"/>
      <stop offset="1" stop-color="#0f172a"/>
    </linearGradient>
    <clipPath id="screen3"><rect x="8" y="8" width="284" height="604" rx="30"/></clipPath>
  </defs>

  <rect x="2" y="2" width="296" height="616" rx="36" fill="#000" opacity="0.5"/>
  <rect x="4" y="4" width="292" height="612" rx="34" fill="#020617"/>
  <g clip-path="url(#screen3)">
    <rect x="8" y="8" width="284" height="604" fill="url(#bg3)"/>
    <rect x="8" y="8" width="284" height="604" fill="#000" opacity="0.45"/>

    <!-- bottom sheet -->
    <rect x="8" y="150" width="284" height="462" rx="22" fill="#1e1b4b" stroke="rgba(165,180,252,0.22)"/>
    <rect x="132" y="166" width="36" height="4" rx="2" fill="rgba(165,180,252,0.22)"/>
    <text x="28" y="196" fill="#f1f5f9" font-size="16" font-weight="bold">Agente de IA</text>
    <text x="28" y="214" fill="#94a3b8" font-size="10">Todos gratuitos. Cambiá en runtime.</text>

    <!-- CHAT category -->
    <text x="28" y="242" fill="#94a3b8" font-size="9" font-weight="bold" letter-spacing="1">CHAT</text>
    <line x1="60" y1="239" x2="272" y2="239" stroke="rgba(165,180,252,0.22)"/>
    <rect x="24" y="250" width="252" height="44" rx="12" fill="rgba(255,255,255,0.06)" stroke="rgba(165,180,252,0.22)"/>
    <rect x="32" y="258" width="28" height="28" rx="8" fill="rgba(255,255,255,0.1)"/>
    <text x="46" y="278" font-size="14" text-anchor="middle">🦙</text>
    <text x="70" y="270" fill="#c7d2fe" font-size="11" font-weight="bold">Ollama</text>
    <text x="70" y="284" fill="#94a3b8" font-size="8.5">Local · sin internet · 100% gratis</text>

    <rect x="24" y="300" width="252" height="44" rx="12" fill="rgba(99,102,241,0.16)" stroke="#818cf8"/>
    <rect x="32" y="308" width="28" height="28" rx="8" fill="#6366f1"/>
    <text x="46" y="328" font-size="14" text-anchor="middle">🤗</text>
    <text x="70" y="320" fill="#f1f5f9" font-size="11" font-weight="bold">HuggingFace</text>
    <text x="70" y="334" fill="#94a3b8" font-size="8.5">Cloud · texto · token gratis · multimodal</text>
    <circle cx="260" cy="322" r="11" fill="#6366f1"/>
    <text x="260" y="326" fill="#fff" font-size="11" text-anchor="middle">✓</text>

    <!-- IMAGES category -->
    <text x="28" y="368" fill="#94a3b8" font-size="9" font-weight="bold" letter-spacing="1">CREACIÓN DE IMÁGENES</text>
    <line x1="160" y1="365" x2="272" y2="365" stroke="rgba(165,180,252,0.22)"/>
    <rect x="24" y="376" width="252" height="44" rx="12" fill="rgba(255,255,255,0.06)" stroke="rgba(165,180,252,0.22)"/>
    <rect x="32" y="384" width="28" height="28" rx="8" fill="rgba(255,255,255,0.1)"/>
    <text x="46" y="404" font-size="14" text-anchor="middle">🍌</text>
    <text x="70" y="396" fill="#c7d2fe" font-size="11" font-weight="bold">Nano Banana</text>
    <text x="70" y="410" fill="#94a3b8" font-size="8.5">FLUX.1-schnell · texto→imagen · cloud</text>

    <!-- VIDEO category -->
    <text x="28" y="444" fill="#94a3b8" font-size="9" font-weight="bold" letter-spacing="1">VIDEO</text>
    <line x1="64" y1="441" x2="272" y2="441" stroke="rgba(165,180,252,0.22)"/>
    <rect x="24" y="452" width="252" height="44" rx="12" fill="rgba(255,255,255,0.06)" stroke="rgba(165,180,252,0.22)"/>
    <rect x="32" y="460" width="28" height="28" rx="8" fill="rgba(255,255,255,0.1)"/>
    <text x="46" y="480" font-size="14" text-anchor="middle">🎬</text>
    <text x="70" y="472" fill="#c7d2fe" font-size="11" font-weight="bold">Krea Video</text>
    <text x="70" y="486" fill="#94a3b8" font-size="8.5">krea-realtime-video · Colab/ngrok</text>

    <rect x="24" y="502" width="252" height="44" rx="12" fill="rgba(255,255,255,0.06)" stroke="rgba(165,180,252,0.22)"/>
    <rect x="32" y="510" width="28" height="28" rx="8" fill="rgba(255,255,255,0.1)"/>
    <text x="46" y="530" font-size="14" text-anchor="middle">🎥</text>
    <text x="70" y="522" fill="#c7d2fe" font-size="11" font-weight="bold">HunyuanVideo</text>
    <text x="70" y="536" fill="#94a3b8" font-size="8.5">HunyuanVideo-1.5 · HD · fal-ai</text>

    <rect x="24" y="560" width="252" height="38" rx="12" fill="rgba(255,255,255,0.06)" stroke="rgba(165,180,252,0.22)"/>
    <text x="150" y="584" fill="#94a3b8" font-size="11" font-weight="bold" text-anchor="middle">Cerrar</text>
  </g>
</svg>
